<svg id="Livello_1" data-name="Livello 1" xmlns="http://www.w3.org/2000/svg" xmlns:xlink="http://www.w3.org/1999/xlink" viewBox="0 0 384.43 379.67"><defs><style>.cls-1,.cls-2{stroke:#000;stroke-miterlimit:10;stroke-width:3px;}.cls-1{fill:url(#Sfumatura_senza_nome_43);}.cls-2{fill:none;}.cls-3{font-size:209.16px;}.cls-3,.cls-4,.cls-5{fill:#fff;font-family:Pristina-Regular, Pristina;}.cls-4{font-size:78.01px;}.cls-5{font-size:220.37px;}</style><linearGradient id="Sfumatura_senza_nome_43" x1="346.78" y1="305.34" x2="-173.31" y2="5.06" gradientUnits="userSpaceOnUse"><stop offset="0.02" stop-color="#3db84c"/><stop offset="0.46" stop-color="#85ff7f"/></linearGradient></defs><title>Senza titolo-9</title><path class="cls-1" d="M114.52,227.85a57.13,57.13,0,1,1,55-99.24A148.28,148.28,0,0,1,328,112.05a60.11,60.11,0,1,1,70,74.26,148.46,148.46,0,0,1-1.88,120.79,72.6,72.6,0,1,1-104.07,82.57,148.89,148.89,0,0,1-85.27-7.42,71.41,71.41,0,1,1-82.14-81.36,147.74,147.74,0,0,1-11.06-56.28A149.68,149.68,0,0,1,114.52,227.85Z" transform="translate(-63.29 -65.79)"/><path class="cls-2" d="M206.78,382.24h0" transform="translate(-63.29 -65.79)"/><text class="cls-3" transform="matrix(0.99, -0.14, 0.14, 0.99, 65.65, 249.5)">S</text><text class="cls-4" transform="translate(160.25 261.53) rotate(1.01)">f</text><text class="cls-5" transform="translate(195.86 246.73)">G</text></svg>